<?xml version="1.0" standalone="no"?>
<!DOCTYPE svg PUBLIC "-//W3C//DTD SVG 20010904//EN"
 "http://www.w3.org/TR/2001/REC-SVG-20010904/DTD/svg10.dtd">
<svg version="1.0" xmlns="http://www.w3.org/2000/svg"

 width="206.000000pt" height="205.000000pt" viewBox="0 0 206.000000 205.000000"
 preserveAspectRatio="xMidYMid meet">

 <a href="https://www.shalom-sevlievo.church/">
   <circle cx="100" cy="100" r="100" />
</a>

<g transform="translate(0.000000,205.000000) scale(0.100000,-0.100000)"
fill="white" stroke="none">
<path d="M1038 1723 l-3 -188 -162 -5 c-89 -3 -165 -9 -169 -13 -4 -4 67 -7
158 -7 90 0 167 -2 169 -4 2 -2 2 -55 -1 -117 l-5 -112 -40 -21 c-29 -15 -35
-22 -22 -24 10 -2 29 4 42 12 l25 16 0 -230 c0 -154 -3 -230 -10 -230 -6 0
-25 7 -41 16 -29 14 -30 17 -15 33 24 27 19 37 -7 13 -19 -18 -28 -20 -62 -12
-23 5 -62 5 -90 1 -49 -8 -49 -9 28 -10 42 0 77 -5 77 -10 0 -13 -57 -31 -124
-38 l-59 -6 6 29 c6 27 6 28 -5 6 -14 -28 -46 -23 -96 15 -38 29 -94 102 -89
117 2 5 28 15 58 21 56 11 120 42 126 61 2 6 -18 1 -44 -13 -27 -13 -73 -26
-103 -30 -82 -9 -83 -11 -56 -70 29 -61 94 -128 142 -143 19 -6 34 -13 34 -15
0 -2 -21 -51 -46 -110 -25 -59 -42 -111 -37 -114 4 -4 33 -13 63 -20 30 -8
101 -31 156 -52 56 -21 125 -41 153 -45 l51 -7 0 -93 c0 -56 4 -94 10 -94 6 0
10 85 11 233 0 127 3 366 5 530 4 283 5 299 25 326 39 53 111 99 189 120 40
12 79 26 84 32 8 9 6 10 -9 5 -11 -4 -49 -14 -85 -22 -65 -15 -141 -56 -175
-94 -10 -11 -22 -20 -27 -20 -5 0 -8 37 -6 83 l3 82 170 5 c199 6 169 20 -42
20 l-133 0 0 190 c0 117 -4 190 -10 190 -6 0 -11 -74 -12 -187z m-54 -925 l43
-23 7 -139 c4 -76 4 -141 1 -144 -3 -3 -37 11 -77 32 -86 45 -148 58 -231 48
l-62 -7 95 -6 c58 -3 109 -12 130 -22 70 -33 152 -85 143 -90 -15 -9 -120 13
-177 38 -31 14 -89 34 -128 45 -40 11 -76 24 -81 29 -5 5 5 46 26 103 l35 93
67 7 c56 5 91 18 163 57 1 0 22 -9 46 -21z"/>
<path d="M905 1853 c-158 -34 -341 -131 -444 -237 l-44 -45 38 -15 c21 -9 39
-16 42 -16 2 0 41 32 86 70 95 81 238 158 345 186 52 13 71 22 67 32 -3 8 -5
20 -5 28 0 16 4 17 -85 -3z"/>
<path d="M1102 1851 c3 -21 10 -23 73 -27 199 -13 353 -72 505 -195 36 -29 58
-44 50 -34 -38 47 -171 140 -264 185 -108 52 -195 77 -301 87 -65 6 -67 5 -63
-16z"/>
<path d="M236 1542 c7 -15 29 -61 47 -102 40 -89 78 -135 154 -186 30 -20 63
-50 72 -65 14 -26 31 -38 31 -24 0 25 -43 74 -109 124 -44 34 -89 74 -101 90
-25 36 -73 142 -66 148 6 6 152 -34 202 -56 24 -11 79 -57 135 -116 96 -99
131 -125 169 -125 31 0 19 23 -16 32 -19 5 -55 35 -99 84 -88 98 -161 146
-267 173 -46 12 -102 28 -124 36 l-42 13 14 -26z"/>
<path d="M839 1343 c-18 -21 -44 -43 -58 -50 -25 -11 -25 -11 -4 -12 14 -1 33
13 54 39 18 22 41 42 51 46 26 8 48 -13 48 -47 0 -15 4 -30 9 -34 12 -7 2 65
-12 83 -18 23 -54 13 -88 -25z"/>
<path d="M231 1290 c-79 -178 -113 -382 -94 -573 18 -175 53 -239 110 -202 22
15 25 22 20 54 -3 20 -11 72 -17 116 -23 155 2 371 60 529 l22 58 -25 26 c-13
15 -29 35 -34 45 -8 16 -15 7 -42 -53z"/>
<path d="M891 1264 c-26 -19 -26 -24 3 -183 18 -99 15 -158 -10 -168 -21 -8
-17 -22 5 -16 58 15 72 101 34 203 -32 86 -37 128 -18 156 18 28 17 29 -14 8z"/>
<path d="M1090 1160 l0 -100 30 0 c23 0 30 -4 30 -20 0 -11 5 -20 11 -20 9 0
10 20 6 68 -4 37 -7 91 -7 120 0 28 -4 52 -10 52 -6 0 -10 -33 -10 -80 0 -64
-3 -80 -15 -80 -12 0 -15 16 -15 80 0 47 -4 80 -10 80 -6 0 -10 -40 -10 -100z"/>
<path d="M1170 1240 c0 -11 7 -20 15 -20 12 0 15 -16 15 -81 l0 -80 32 3 c26
2 33 8 40 35 10 39 -5 83 -32 90 -15 4 -20 14 -20 39 0 30 -3 34 -25 34 -18 0
-25 -5 -25 -20z m80 -121 c0 -10 -7 -19 -15 -19 -15 0 -21 31 -9 43 11 10 24
-3 24 -24z"/>
<path d="M1290 1160 c0 -60 4 -100 10 -100 6 0 10 15 10 33 0 26 6 36 25 45
21 10 25 19 25 51 0 57 -8 71 -41 71 l-29 0 0 -100z m45 35 c0 -10 -6 -20 -12
-22 -8 -3 -13 5 -13 22 0 17 5 25 13 23 6 -3 12 -13 12 -23z"/>
<path d="M1370 1159 c0 -75 3 -100 12 -97 7 3 15 15 19 29 l6 24 4 -24 c2 -14
10 -26 17 -29 10 -3 12 4 5 34 -9 45 -8 97 2 137 6 21 4 27 -8 27 -9 0 -18 -8
-20 -17 -4 -17 -5 -17 -6 0 0 9 -8 17 -16 17 -12 0 -15 -18 -15 -101z"/>
<path d="M1450 1160 l0 -100 30 0 c17 0 33 7 39 18 10 16 10 16 11 0 0 -26 19
-22 30 7 5 14 14 25 19 25 5 0 12 -11 15 -25 6 -25 26 -35 26 -14 0 6 -7 51
-16 100 -21 114 -37 116 -55 7 -12 -75 -14 -79 -21 -48 -4 19 -6 45 -3 57 3
12 1 33 -5 47 -7 20 -16 26 -40 26 l-30 0 0 -100z m48 43 c-4 -22 -22 -20 -26
1 -2 10 3 16 13 16 10 0 15 -7 13 -17z m2 -83 c0 -11 -7 -20 -15 -20 -8 0 -15
9 -15 20 0 11 7 20 15 20 8 0 15 -9 15 -20z"/>
<path d="M1082 833 l3 -98 77 -2 c73 -1 77 0 82 23 8 32 32 31 40 -2 5 -20 12
-25 33 -22 32 4 40 26 42 106 2 86 21 60 21 -28 0 -47 4 -80 10 -80 6 0 10 40
10 100 l0 100 -35 0 -35 0 0 -80 c0 -44 -4 -80 -9 -80 -11 0 -16 14 -32 98
-19 102 -40 77 -65 -78 -11 -66 -19 -46 -19 47 0 60 -4 87 -12 90 -10 4 -13
-16 -13 -76 0 -47 -4 -81 -10 -81 -6 0 -10 33 -10 80 0 64 -3 80 -15 80 -12 0
-15 -16 -15 -80 0 -47 -4 -80 -10 -80 -6 0 -10 33 -10 80 0 65 -3 80 -15 80
-13 0 -15 -15 -13 -97z m185 -5 c-3 -8 -6 -5 -6 6 -1 11 2 17 5 13 3 -3 4 -12
1 -19z"/>
<path d="M1430 911 c-5 -11 -10 -47 -10 -81 0 -70 12 -100 40 -100 36 0 50 27
50 96 0 77 -12 104 -45 104 -14 0 -29 -8 -35 -19z m54 -37 c9 -25 7 -63 -5
-86 -11 -21 -12 -21 -25 -3 -24 32 -16 105 11 105 7 0 16 -7 19 -16z"/>
<path d="M1530 831 c0 -56 4 -101 9 -101 5 0 12 12 14 28 l4 27 2 -27 c0 -17
7 -28 15 -28 8 0 17 12 19 28 l4 27 2 -27 c0 -16 6 -28 11 -28 6 0 10 40 10
100 0 82 -3 100 -15 100 -10 0 -17 -15 -22 -42 l-8 -43 -5 40 c-3 27 -10 41
-22 43 -16 3 -18 -7 -18 -97z"/>
<path d="M1105 610 c-21 -23 -25 -133 -6 -167 20 -39 58 -23 63 27 4 29 -18
38 -25 9 -10 -36 -27 -10 -27 41 0 45 19 79 28 52 2 -7 11 -12 19 -12 10 0 13
6 9 16 -3 9 -6 20 -6 24 0 5 -8 14 -19 19 -14 8 -23 6 -36 -9z"/>
<path d="M1732 621 c-29 -18 -42 -114 -22 -166 26 -68 80 -27 80 60 0 82 -25
127 -58 106z m34 -77 c7 -37 -9 -89 -25 -80 -13 8 -20 57 -14 89 8 39 31 34
39 -9z"/>
<path d="M1180 520 l0 -100 35 0 c28 0 35 4 35 19 0 13 -8 21 -22 23 -15 2
-24 11 -26 26 -3 18 1 22 23 22 20 0 26 4 23 18 -2 9 -13 18 -26 20 -31 5 -28
32 3 32 18 0 25 5 25 20 0 16 -7 20 -35 20 l-35 0 0 -100z"/>
<path d="M1260 525 c0 -104 8 -118 54 -97 16 7 27 7 34 0 21 -21 32 5 32 78 0
97 18 96 22 -1 4 -108 22 -94 26 20 l3 95 -36 0 -35 0 0 -80 c0 -47 -4 -80
-10 -80 -10 0 -15 43 -11 89 5 52 -7 71 -44 71 l-35 0 0 -95z m52 40 c0 -5 -5
-11 -11 -13 -6 -2 -11 4 -11 13 0 9 5 15 11 13 6 -2 11 -8 11 -13z m3 -80 c0
-10 -6 -20 -12 -22 -8 -3 -13 5 -13 22 0 17 5 25 13 23 6 -3 12 -13 12 -23z"/>
<path d="M1442 525 c2 -52 7 -96 13 -98 5 -1 15 16 21 38 l12 40 3 -40 c7 -77
24 -41 27 58 2 81 0 97 -12 97 -9 0 -20 -17 -28 -42 l-13 -43 -3 43 c-2 23 -8
42 -13 42 -6 0 -9 -38 -7 -95z"/>
<path d="M1532 523 l3 -98 33 -3 c26 -3 32 0 32 17 0 13 -8 21 -22 23 -15 2
-23 10 -23 23 0 13 8 21 23 23 32 5 30 42 -3 42 -16 0 -25 6 -25 15 0 9 9 15
25 15 18 0 25 5 25 20 0 16 -7 20 -35 20 l-36 0 3 -97z"/>
<path d="M1612 523 c3 -94 4 -98 26 -101 41 -6 52 14 51 92 -1 99 -4 106 -45
106 l-35 0 3 -97z m58 42 c0 -8 -7 -15 -15 -15 -8 0 -15 7 -15 15 0 8 7 15 15
15 8 0 15 -7 15 -15z m-5 -80 c0 -10 -6 -20 -12 -22 -8 -3 -13 5 -13 22 0 17
5 25 13 23 6 -3 12 -13 12 -23z"/>
</g>
</svg>
