<?xml version="1.0" standalone="no"?>
<!DOCTYPE svg PUBLIC "-//W3C//DTD SVG 20010904//EN"
 "http://www.w3.org/TR/2001/REC-SVG-20010904/DTD/svg10.dtd">
<svg version="1.0" xmlns="http://www.w3.org/2000/svg"
 width="1024.000000pt" height="45.000000pt" viewBox="0 0 1024.000000 45.000000"
 preserveAspectRatio="xMidYMid meet">

<g transform="translate(0.000000,45.000000) scale(0.100000,-0.100000)"
fill="#000000" stroke="none">
<path d="M120 270 l0 -70 70 0 70 0 0 70 0 70 -70 0 -70 0 0 -70z m130 0 l0
-60 -60 0 -60 0 0 60 0 60 60 0 60 0 0 -60z"/>
<path d="M5037 132 c-37 -40 -6 -92 54 -92 32 0 39 -3 39 -20 0 -17 7 -20 40
-20 22 0 54 9 72 20 l33 20 -72 0 -73 0 0 45 c0 34 -5 47 -19 55 -29 15 -56
12 -74 -8z"/>
</g>
</svg>
